<svg xmlns="http://www.w3.org/2000/svg" version="1.1" xmlns:xlink="http://www.w3.org/1999/xlink" xmlns:svgjs="http://svgjs.dev/svgjs" width="2000" height="2242" viewBox="0 0 2000 2242"><g transform="matrix(1,0,0,1,-3.1151183800621993,0)"><svg viewBox="0 0 321 360" data-background-color="#121212" preserveAspectRatio="xMidYMid meet" height="2242" width="2000" xmlns="http://www.w3.org/2000/svg" xmlns:xlink="http://www.w3.org/1999/xlink"><g id="tight-bounds" transform="matrix(1,0,0,1,0.5000234999999975,0)"><svg viewBox="0 0 320 360" height="360" width="320"><g><svg></svg></g><g><svg viewBox="0 0 320 360" height="360" width="320"><g><path transform="translate(-74.99272,-51.79039) scale(4.65793,4.65793)" d="M20.6 59.9l0.8 1-0.4-1.3c-0.1-0.6-0.8 0.1-0.4 0.3M21.5 59.3c0.3 0.5 0.6 1 0.6 1.5 0 0.7 0.6 1 1.1 1.2-0.7-0.8-1.1-3-1.7-2.7M59.9 16.9c1.7 0 3.3-0.2 5.1 0.2 4.4 1.1 8.1 3.3 10.6 6.4l7 11.2c0.3 2.8 0.9 5.9 0.8 9.3 0.7 0 0.6-1 1.4-1.2-0.8 2-1.2 4.5-1.4 7.4-0.5-1.6 0-4 0.1-5.3-0.7 1.1-1.1 0.3-1.1-0.2 0.1-0.8-0.3-0.7-0.6-1-1.1-1-1.8-2.1-2.6-3.8 0.5-1.3 0.6-3.2-1-4.2-0.5-0.3-1.1-0.8-1.4-1.6-0.4-1.1-1.1-2.4-0.9-4.1 0.1-0.5-1.5 1.1-2.4 0.4-3.9-2.7-7.8-5.8-12.5-8.4-2.5 0-4.3-0.9-5.2-2-0.8-1-0.2-2.3 1-2.4 0.7 0 1.5-0.2 2.1 0.2 0.1-0.4 0.5-0.9 1-0.9M50 14.6l0.2 0.1c1 0.2 1.5 1.6 2.6 1.1 0 0.7 0.1 1.4-0.1 1.9-0.3 0.8-1.2 0.8-1.9 0.8-6.7-0.4-10.6 2.4-14.7 4.8-1.1 0.7-2.3 1.2-3.2 2.1-4.3 4-9 7.7-10.1 15.1l-0.9 8.2c-0.1 0.9-1.1 1.8-0.9 2.9l0.7 4.9c-0.7-0.7-1.1 0.2-0.9 0.6 0.1 0.3 0.5 1.3 1.1 0.4 0.8 1.5 1.6 4.4 2.7 5.7 3.4 4 7.8 7.6 11.4 11.2 0.9-0.2 1.6-0.2 1.8-0.8 0.3 0.6-0.3 1.2-0.8 1.3 1.6 1 3.4 1.9 5.8 2.1 3.1 0.2 6 0.7 8.7 1.4 1.4-0.4 2.8-0.6 4.3-0.7 0.5 0 0.8-0.8 1.4-1l0.1-1c0.6 0.9 0.5-0.3 0.1-0.9 0.7 0.6 0.9 1.1 1.2 1.5 0-0.3 0.8-1.4 0.8-0.1l0.2-1.3c0.3-0.2 0.4 1.1 0.7 0.2 0.3-0.9 0.9-0.2 1.5-0.5-0.2 0.4-0.1 1.2 0.6 0.7l0.8-0.7c0.5 1.2 1.3 0.7 1.7 0.5 4.4-2.8 8.8-6.1 13-9.4l-0.1 1.3 0.5-1.6c0.5 0.5 0.9 0.1 1.1-0.2 0.6-1 1.4-2 2.7-2.9-1.6 4.3-3.5 7.7-5.9 10.5l-1 1.2c0 0.7-0.2 1.6-1 1.7-0.4 0.1-1.2-0.2-1.8 0.4-0.3 0.4 0.7 1.2-0.1 0.6-0.7-0.5-1.4 0-2.2 0.2-0.6 0.2 0.4 0.8 0.6 1.2 0.2 0.4 0.4 0.8 0.3 1.3l-1.1-1.2c-1.3 0.7-2.1 2-3.2 3-0.5 0.4-0.3 1.1-0.3 1.7-0.7 0-1.5-0.2-1.9 0.2-0.3 0.4-0.2 1-0.2 1.6-1-0.1-1.1-1.6-2-1.3-0.9 0.2-1.9 0.3-2.7 0.8 0.6 1.2-1 0.5-0.8 0.7-1.5-0.9-2.8-1.6-4.4-1-3.4-1.1-7.6-0.6-10.7-0.2 0-0.5 0.1-1-0.1-1.1-0.2 0.5-0.8 0.3-0.7 0.3-1.9-1.3-3.8-2.1-5.8-3.2-1.8 0.2-3.5-0.7-4-1.2-1.4-1.3-3-0.6-4.3-0.9-2.8-0.7-3.8-3.6-4.1-5.6-0.2-1-1-1.4-1.3-1.3-1.3-4.2-3.3-8-4.9-11.9-0.4-1-0.3-2-0.3-3.1 0.5 0.2 1 0.1 0.9-0.6-0.5-3.3-1.7-5.8-3-8.2 0.7-3.4 0.8-7.4 2.4-10.4 1.4-2.7 4-4.1 5.8-6.4 0.6-0.8 0.6-1.9 1.2-2.6 2-2 4-4.1 6.2-5.9 1-0.8 2.2 0 3.7-0.3 0.5-1.8 2.5-3.4 4.4-2.9 0.8 0.2 2.4-1.9 2.9-2.1 0.8-0.3 0.4 0.8 0.4 1.5 1.9-1.5 4.5-2.3 6.9-3.2" fill="#e1410d" fill-rule="nonzero" stroke="none" stroke-width="1" stroke-linecap="butt" stroke-linejoin="miter" stroke-miterlimit="10" stroke-dasharray="" stroke-dashoffset="0" font-family="none" font-weight="none" font-size="none" text-anchor="none" style="mix-blend-mode: normal" data-fill-palette-color="tertiary"></path></g><g transform="matrix(1,0,0,1,125.41431973258601,90)"><svg viewBox="0 0 69.17136053482798 180" height="180" width="69.17136053482798"><g><svg viewBox="0 0 69.17136053482798 180" height="180" width="69.17136053482798"><g><svg viewBox="0 0 88.95483870967742 231.4812206083457" height="180" width="69.17136053482798"><g transform="matrix(1,0,0,1,0,51.4812206083457)"><svg viewBox="0 0 88.95483870967742 180" height="180" width="88.95483870967742"><g id="textblocktransform"><svg viewBox="0 0 88.95483870967742 180" height="180" width="88.95483870967742" id="textblock"><g><svg viewBox="0 0 88.95483870967742 180" height="180" width="88.95483870967742"><g transform="matrix(1,0,0,1,0,0)"><svg width="88.95483870967742" viewBox="0.63 -37.35 18.71 37.84" height="180" data-palette-color="#e1410d"><path d="M17.97-19.73L17.97-19.73 17.99-10.5Q17.99-6.08 15.77-3.03L15.77-3.03Q13.16 0.49 8.5 0.49L8.5 0.49Q4.83 0.49 2.64-1.95L2.64-1.95Q0.63-4.17 0.63-7.32L0.63-7.32Q1.73-9.86 2.98-11.21L2.98-11.21Q5.03-13.43 6.4-13.67L6.4-13.67Q6.01-11.45 6.01-9.59 6.01-7.74 6.16-6.46 6.32-5.18 6.69-4.17L6.69-4.17Q7.5-1.95 9.23-1.95L9.23-1.95Q10.74-1.95 11.52-3.91L11.52-3.91Q12.18-5.52 12.18-8.23L12.18-8.23 12.18-14.09Q12.18-24.68 12.04-31.93L12.04-31.93Q11.99-33.86 11.46-35.12 10.94-36.38 9.69-37.35L9.69-37.35 19.34-37.35Q18.6-36.04 18.44-34.52 18.29-33.01 18.16-31.2L18.16-31.2Q17.97-27.76 17.97-19.73Z" opacity="1" transform="matrix(1,0,0,1,0,0)" fill="#e1410d" class="wordmark-text-0" data-fill-palette-color="primary" id="text-0"></path></svg></g></svg></g></svg></g></svg></g><g transform="matrix(1,0,0,1,16.990374193548387,0)"><svg viewBox="0 0 54.97409032258064 25.2149006083457" height="25.2149006083457" width="54.97409032258064"><g><svg xmlns="http://www.w3.org/2000/svg" xmlns:xlink="http://www.w3.org/1999/xlink" version="1.1" x="0" y="0" viewBox="15.745201282869168 33.691832735707955 74.67952145718155 34.25316726429204" enable-background="new 0 0 100 100" xml:space="preserve" height="25.2149006083457" width="54.97409032258064" class="icon-icon-0" data-fill-palette-color="accent" id="icon-0"><g fill="#e1410d" data-fill-palette-color="accent"><g fill="#e1410d" data-fill-palette-color="accent"><circle cx="27.225" cy="39.269" r="4.2" fill="#e1410d" data-fill-palette-color="accent"></circle></g><path d="M88.604 64.239C87.955 64.111 87.065 63.935 86.168 63.525 84.842 62.919 84.186 62.125 83.355 61.12 83.033 60.73 82.699 60.327 82.314 59.917 80.403 57.884 78.314 56.982 74.149 55.184A42.6 42.6 0 0 0 64.25 52.282C61.466 51.819 56.807 51.043 51.069 52.119 50.348 52.254 49.64 52.413 48.713 52.622 47.357 52.927 45.499 53.346 42.394 53.954 40.707 54.285 39.115 54.597 37.073 54.281 35.606 54.054 33.943 53.796 32.861 52.471 31.546 50.86 31.891 48.692 31.906 48.6 32.029 47.862 32.281 47.483 32.63 46.959 33.038 46.346 33.545 45.583 33.891 44.174 34.114 43.263 34.327 41.822 34.076 40.123 33.893 38.883 33.642 37.186 32.321 35.757 30.66 33.96 27.843 33.244 25.309 33.975 22.731 34.72 21.353 36.769 20.881 37.615 20.331 38.598 20.213 39.343 20.119 39.941 20.033 40.484 19.976 40.843 19.61 41.351 18.899 42.334 17.792 42.788 17.06 43.088 16.491 43.321 15.539 43.711 15.785 44.682 16.034 45.662 17.051 45.554 17.793 45.476 18.772 45.372 20.251 45.215 21.377 45.943 22.014 46.355 22.323 46.95 23.022 48.376 23.209 48.758 23.362 49.103 23.496 49.428H25.636A18 18 0 0 0 24.818 47.496C24.079 45.989 23.59 44.993 22.463 44.264 21.785 43.826 21.055 43.594 20.352 43.481 20.664 43.209 20.963 42.892 21.231 42.523 21.878 41.628 21.993 40.898 22.095 40.254 22.179 39.722 22.251 39.263 22.627 38.592 22.979 37.961 24 36.436 25.864 35.898 27.66 35.379 29.711 35.881 30.852 37.116 31.753 38.092 31.936 39.327 32.097 40.417A8.6 8.6 0 0 1 31.949 43.699C31.687 44.768 31.336 45.295 30.965 45.852 30.572 46.443 30.127 47.112 29.934 48.272 29.88 48.592 29.464 51.47 31.312 53.736 32.879 55.656 35.126 56.004 36.767 56.258 39.155 56.628 40.997 56.267 42.779 55.918 45.911 55.305 47.785 54.883 49.153 54.575A62 62 0 0 1 51.438 54.087C56.829 53.078 61.27 53.816 63.923 54.257A40.6 40.6 0 0 1 73.358 57.022C77.269 58.71 79.232 59.558 80.859 61.289 81.213 61.665 81.519 62.037 81.815 62.395 82.69 63.454 83.594 64.549 85.339 65.346 85.57 65.451 85.8 65.544 86.025 65.626 84.056 65.915 81.386 66.289 78.58 65.324 77.088 64.811 76.544 64.269 75.719 63.448 74.983 62.715 74.066 61.802 72.261 60.741 68.213 58.363 64.345 57.951 62.693 57.775 62.389 57.743 62.001 57.702 61.376 57.702 60.023 57.702 57.559 57.894 52.418 58.784 49.738 59.248 47.655 59.671 45.981 60.011 42.148 60.789 40.224 61.181 36.996 60.939 32.826 60.628 31.136 59.588 30.227 58.834 28.314 57.245 27.37 54.93 27.014 54.059A13 13 0 0 1 26.468 52.418H24.401C24.578 53.132 24.784 53.886 25.163 54.815 25.57 55.813 26.652 58.464 28.95 60.373 30.164 61.382 32.16 62.584 36.849 62.934 40.35 63.196 42.494 62.761 46.381 61.972 48.042 61.635 50.109 61.215 52.76 60.756 60.006 59.501 61.679 59.678 62.484 59.765 64.008 59.927 67.575 60.306 71.251 62.466 72.837 63.398 73.62 64.178 74.311 64.865 75.183 65.733 76.006 66.553 77.932 67.216 79.54 67.769 81.1 67.945 82.516 67.945 84.012 67.945 85.346 67.749 86.403 67.593 89.787 67.095 90.45 66.45 90.424 65.572 90.388 64.592 89.44 64.404 88.604 64.239" fill="#e1410d" data-fill-palette-color="accent"></path></g></svg></g></svg></g><g></g></svg></g></svg></g></svg></g></svg></g><defs></defs></svg><rect width="320" height="360" fill="none" stroke="none" visibility="hidden"></rect></g></svg></g></svg>